# xmcd
#
# Track frame offsets:
#	150
#	13496
#	27457
#	39255
#	50396
#	64305
#	75741
#	86937
#	98497
#	109897
#	122297
#	135894
#	147498
#	160414
#	170156
#	183141
#
# Disc length: 2579
#
# Revision: 2
# Processed by: cddbd v1.5.1PL0 Copyright (c) Steve Scherf et al.
# Submitted via: EasyCDDAExtractor 4.6.9.1
# Normalized: r0:DSETVAR1,TDELIM( - );r1:TSWAP
#
DISCID=d60a1110
DTITLE=Various Artist - 25 YEARS OF RHYTHM AND BLUES HITS
DYEAR=1985
DGENRE=Blues
TTITLE0=SONNY THOMPSON - Long Gone
TTITLE1=LONNIE JHNSON - Tomorrow Night
TTITLE2=LUCKY MILLINDER - I'm Waiting Just for Youu
TTITLE3=ANNISTEEN ALLEN - Baby I'm Doin'lt
TTITLE4=JOHN LEE HOOKER - Morning Blues
TTITLE5=MUDDY WATERS - Dissatisfied
TTITLE6=BILLY WARD AND THE DOMINOES - Sixty Minute Man
TTITLE7=TINY BRADSHAW - Soft
TTITLE8=BILL DOGGETT - Slow Walk
TTITLE9=WYNONIE HARRIS - Good Rockin' Tonaight
TTITLE10=ROY BROWN - Hard Luck Blues
TTITLE11=LAVERN BAKER - Trying
TTITLE12=ivory joe hunter - gUESS wHO
TTITLE13=CHAMPION JACK DUPREE - Me And My Mule
TTITLE14=THE PLATERS - Only You
TTITLE15=EARL BOSTIC - Harlem Nocturne
EXTD=
EXTT0=
EXTT1=
EXTT2=
EXTT3=
EXTT4=
EXTT5=
EXTT6=
EXTT7=
EXTT8=
EXTT9=
EXTT10=
EXTT11=
EXTT12=
EXTT13=
EXTT14=
EXTT15=
PLAYORDER=
